<mxfile modified="2024-07-04T17:58:36.833Z" host="app.diagrams.net" agent="Mozilla/5.0 (Windows NT 10.0; Win64; x64; rv:127.0) Gecko/20100101 Firefox/127.0" etag="kY8tcr7nK0p-Qxqj314t" version="24.6.4" type="device" pages="5">
  <diagram id="Ht1M8jgEwFfnCIfOTk4-" name="DynamoDB Stream Option">
    <mxGraphModel dx="1050" dy="511" grid="1" gridSize="10" guides="1" tooltips="1" connect="1" arrows="1" fold="1" page="1" pageScale="1" pageWidth="1169" pageHeight="827" math="0" shadow="0">
      <root>
        <mxCell id="0" />
        <mxCell id="1" parent="0" />
        <mxCell id="GD8RWetTdTd3yLx-q4zy-2" value="AWS Cloud" style="points=[[0,0],[0.25,0],[0.5,0],[0.75,0],[1,0],[1,0.25],[1,0.5],[1,0.75],[1,1],[0.75,1],[0.5,1],[0.25,1],[0,1],[0,0.75],[0,0.5],[0,0.25]];outlineConnect=0;gradientColor=none;html=1;whiteSpace=wrap;fontSize=12;fontStyle=0;container=1;pointerEvents=0;collapsible=0;recursiveResize=0;shape=mxgraph.aws4.group;grIcon=mxgraph.aws4.group_aws_cloud_alt;strokeColor=#232F3E;fillColor=none;verticalAlign=top;align=left;spacingLeft=30;fontColor=#232F3E;dashed=0;" parent="1" vertex="1">
          <mxGeometry x="40" y="40" width="740" height="340" as="geometry" />
        </mxCell>
        <mxCell id="EjMKMVdWJRHREz_ccZ0R-16" style="edgeStyle=orthogonalEdgeStyle;rounded=0;orthogonalLoop=1;jettySize=auto;html=1;" parent="GD8RWetTdTd3yLx-q4zy-2" source="UEzPUAAOIrF-is8g5C7q-113" target="UEzPUAAOIrF-is8g5C7q-121" edge="1">
          <mxGeometry relative="1" as="geometry">
            <Array as="points">
              <mxPoint x="540" y="79.5" />
              <mxPoint x="540" y="242.5" />
            </Array>
          </mxGeometry>
        </mxCell>
        <mxCell id="EjMKMVdWJRHREz_ccZ0R-17" style="edgeStyle=orthogonalEdgeStyle;rounded=0;orthogonalLoop=1;jettySize=auto;html=1;" parent="GD8RWetTdTd3yLx-q4zy-2" source="UEzPUAAOIrF-is8g5C7q-113" target="EjMKMVdWJRHREz_ccZ0R-4" edge="1">
          <mxGeometry relative="1" as="geometry" />
        </mxCell>
        <mxCell id="UEzPUAAOIrF-is8g5C7q-113" value="&lt;b&gt;Consent History Ingester&lt;/b&gt;&lt;br&gt;&lt;div&gt;(Lambda)&lt;/div&gt;" style="outlineConnect=0;fontColor=#232F3E;gradientColor=#F78E04;gradientDirection=north;fillColor=#D05C17;strokeColor=#ffffff;dashed=0;verticalLabelPosition=bottom;verticalAlign=top;align=center;html=1;fontSize=12;fontStyle=0;aspect=fixed;shape=mxgraph.aws4.resourceIcon;resIcon=mxgraph.aws4.lambda;labelBackgroundColor=#ffffff;spacingTop=3;" parent="GD8RWetTdTd3yLx-q4zy-2" vertex="1">
          <mxGeometry x="400.75" y="40" width="78" height="78" as="geometry" />
        </mxCell>
        <mxCell id="EjMKMVdWJRHREz_ccZ0R-2" style="edgeStyle=orthogonalEdgeStyle;rounded=0;orthogonalLoop=1;jettySize=auto;html=1;" parent="GD8RWetTdTd3yLx-q4zy-2" source="UEzPUAAOIrF-is8g5C7q-119" target="EjMKMVdWJRHREz_ccZ0R-1" edge="1">
          <mxGeometry relative="1" as="geometry" />
        </mxCell>
        <mxCell id="UEzPUAAOIrF-is8g5C7q-119" value="&lt;div&gt;&lt;b&gt;Consent DB&lt;/b&gt;&lt;br&gt;&lt;/div&gt;&lt;div&gt;(DynamoDB)&lt;/div&gt;" style="outlineConnect=0;fontColor=#232F3E;gradientColor=#4D72F3;gradientDirection=north;fillColor=#3334B9;strokeColor=#ffffff;dashed=0;verticalLabelPosition=bottom;verticalAlign=top;align=center;html=1;fontSize=12;fontStyle=0;aspect=fixed;shape=mxgraph.aws4.resourceIcon;resIcon=mxgraph.aws4.dynamodb;labelBackgroundColor=#ffffff;spacingTop=5;" parent="GD8RWetTdTd3yLx-q4zy-2" vertex="1">
          <mxGeometry x="39.25000000000023" y="118" width="78" height="78" as="geometry" />
        </mxCell>
        <mxCell id="UEzPUAAOIrF-is8g5C7q-121" value="&lt;div&gt;&lt;b&gt;Application Logs &amp;amp; Metrics&lt;/b&gt;&lt;br&gt;&lt;/div&gt;&lt;div&gt;(CloudWatch)&lt;/div&gt;" style="outlineConnect=0;fontColor=#232F3E;gradientColor=#F34482;gradientDirection=north;fillColor=#BC1356;strokeColor=#ffffff;dashed=0;verticalLabelPosition=bottom;verticalAlign=top;align=center;html=1;fontSize=12;fontStyle=0;aspect=fixed;shape=mxgraph.aws4.resourceIcon;resIcon=mxgraph.aws4.cloudwatch;labelBackgroundColor=#ffffff;" parent="GD8RWetTdTd3yLx-q4zy-2" vertex="1">
          <mxGeometry x="599.2500000000002" y="203.5" width="78" height="78" as="geometry" />
        </mxCell>
        <mxCell id="EjMKMVdWJRHREz_ccZ0R-13" style="edgeStyle=orthogonalEdgeStyle;rounded=0;orthogonalLoop=1;jettySize=auto;html=1;" parent="GD8RWetTdTd3yLx-q4zy-2" source="EjMKMVdWJRHREz_ccZ0R-1" target="UEzPUAAOIrF-is8g5C7q-113" edge="1">
          <mxGeometry relative="1" as="geometry">
            <Array as="points">
              <mxPoint x="340" y="157.5" />
              <mxPoint x="340" y="80.5" />
            </Array>
          </mxGeometry>
        </mxCell>
        <mxCell id="EjMKMVdWJRHREz_ccZ0R-14" style="edgeStyle=orthogonalEdgeStyle;rounded=0;orthogonalLoop=1;jettySize=auto;html=1;" parent="GD8RWetTdTd3yLx-q4zy-2" source="EjMKMVdWJRHREz_ccZ0R-1" target="EjMKMVdWJRHREz_ccZ0R-6" edge="1">
          <mxGeometry relative="1" as="geometry">
            <Array as="points">
              <mxPoint x="340" y="157.5" />
              <mxPoint x="340" y="242.5" />
            </Array>
          </mxGeometry>
        </mxCell>
        <mxCell id="EjMKMVdWJRHREz_ccZ0R-1" value="&lt;div&gt;&lt;b&gt;Consent Write Events&lt;/b&gt;&lt;br&gt;&lt;/div&gt;&lt;div&gt;(DynamoDB Stream)&lt;/div&gt;" style="outlineConnect=0;fontColor=#232F3E;gradientColor=#4D72F3;gradientDirection=north;fillColor=#3334B9;strokeColor=#ffffff;dashed=0;verticalLabelPosition=bottom;verticalAlign=top;align=center;html=1;fontSize=12;fontStyle=0;aspect=fixed;shape=mxgraph.aws4.resourceIcon;resIcon=mxgraph.aws4.dynamodb;labelBackgroundColor=#ffffff;spacingTop=5;" parent="GD8RWetTdTd3yLx-q4zy-2" vertex="1">
          <mxGeometry x="200.00000000000023" y="118" width="78" height="78" as="geometry" />
        </mxCell>
        <mxCell id="EjMKMVdWJRHREz_ccZ0R-4" value="&lt;b&gt;Consent History DB&lt;/b&gt;&lt;br&gt;&lt;div&gt;(DynamoDB)&lt;/div&gt;" style="outlineConnect=0;fontColor=#232F3E;gradientColor=#4D72F3;gradientDirection=north;fillColor=#3334B9;strokeColor=#ffffff;dashed=0;verticalLabelPosition=bottom;verticalAlign=top;align=center;html=1;fontSize=12;fontStyle=0;aspect=fixed;shape=mxgraph.aws4.resourceIcon;resIcon=mxgraph.aws4.dynamodb;labelBackgroundColor=#ffffff;spacingTop=5;" parent="GD8RWetTdTd3yLx-q4zy-2" vertex="1">
          <mxGeometry x="599.2500000000002" y="40" width="78" height="78" as="geometry" />
        </mxCell>
        <mxCell id="EjMKMVdWJRHREz_ccZ0R-6" value="&lt;b&gt;Consent History Dead Letter Queue&lt;br&gt;&lt;/b&gt;&lt;div&gt;(SQS)&lt;b&gt;&lt;br&gt;&lt;/b&gt;&lt;/div&gt;" style="outlineConnect=0;dashed=0;verticalLabelPosition=bottom;verticalAlign=top;align=center;html=1;shape=mxgraph.aws3.sqs;fillColor=#D9A741;gradientColor=none;" parent="GD8RWetTdTd3yLx-q4zy-2" vertex="1">
          <mxGeometry x="400.75" y="196" width="76.5" height="93" as="geometry" />
        </mxCell>
      </root>
    </mxGraphModel>
  </diagram>
  <diagram id="uODOuoJlDrn1Rt0_Uopw" name="Kinesis Data Stream Option">
    <mxGraphModel dx="1050" dy="511" grid="1" gridSize="10" guides="1" tooltips="1" connect="1" arrows="1" fold="1" page="1" pageScale="1" pageWidth="850" pageHeight="1100" math="0" shadow="0">
      <root>
        <mxCell id="0" />
        <mxCell id="1" parent="0" />
        <mxCell id="iQAo6v7Sjeovjz6BiHLI-1" value="AWS Cloud" style="points=[[0,0],[0.25,0],[0.5,0],[0.75,0],[1,0],[1,0.25],[1,0.5],[1,0.75],[1,1],[0.75,1],[0.5,1],[0.25,1],[0,1],[0,0.75],[0,0.5],[0,0.25]];outlineConnect=0;gradientColor=none;html=1;whiteSpace=wrap;fontSize=12;fontStyle=0;container=1;pointerEvents=0;collapsible=0;recursiveResize=0;shape=mxgraph.aws4.group;grIcon=mxgraph.aws4.group_aws_cloud_alt;strokeColor=#232F3E;fillColor=none;verticalAlign=top;align=left;spacingLeft=30;fontColor=#232F3E;dashed=0;" parent="1" vertex="1">
          <mxGeometry x="40" y="40" width="740" height="340" as="geometry" />
        </mxCell>
        <mxCell id="iQAo6v7Sjeovjz6BiHLI-2" style="edgeStyle=orthogonalEdgeStyle;rounded=0;orthogonalLoop=1;jettySize=auto;html=1;" parent="iQAo6v7Sjeovjz6BiHLI-1" source="iQAo6v7Sjeovjz6BiHLI-4" target="iQAo6v7Sjeovjz6BiHLI-7" edge="1">
          <mxGeometry relative="1" as="geometry">
            <Array as="points">
              <mxPoint x="540" y="79.5" />
              <mxPoint x="540" y="242.5" />
            </Array>
          </mxGeometry>
        </mxCell>
        <mxCell id="iQAo6v7Sjeovjz6BiHLI-3" style="edgeStyle=orthogonalEdgeStyle;rounded=0;orthogonalLoop=1;jettySize=auto;html=1;" parent="iQAo6v7Sjeovjz6BiHLI-1" source="iQAo6v7Sjeovjz6BiHLI-4" target="iQAo6v7Sjeovjz6BiHLI-11" edge="1">
          <mxGeometry relative="1" as="geometry" />
        </mxCell>
        <mxCell id="iQAo6v7Sjeovjz6BiHLI-4" value="&lt;b&gt;Consent History Ingester&lt;/b&gt;&lt;br&gt;&lt;div&gt;(Lambda)&lt;/div&gt;" style="outlineConnect=0;fontColor=#232F3E;gradientColor=#F78E04;gradientDirection=north;fillColor=#D05C17;strokeColor=#ffffff;dashed=0;verticalLabelPosition=bottom;verticalAlign=top;align=center;html=1;fontSize=12;fontStyle=0;aspect=fixed;shape=mxgraph.aws4.resourceIcon;resIcon=mxgraph.aws4.lambda;labelBackgroundColor=#ffffff;spacingTop=3;" parent="iQAo6v7Sjeovjz6BiHLI-1" vertex="1">
          <mxGeometry x="400.75" y="40" width="78" height="78" as="geometry" />
        </mxCell>
        <mxCell id="iQAo6v7Sjeovjz6BiHLI-5" style="edgeStyle=orthogonalEdgeStyle;rounded=0;orthogonalLoop=1;jettySize=auto;html=1;" parent="iQAo6v7Sjeovjz6BiHLI-1" source="iQAo6v7Sjeovjz6BiHLI-6" edge="1">
          <mxGeometry relative="1" as="geometry">
            <mxPoint x="200.00000000000023" y="157" as="targetPoint" />
          </mxGeometry>
        </mxCell>
        <mxCell id="iQAo6v7Sjeovjz6BiHLI-6" value="&lt;div&gt;&lt;b&gt;Consent DB&lt;/b&gt;&lt;br&gt;&lt;/div&gt;&lt;div&gt;(DynamoDB)&lt;/div&gt;" style="outlineConnect=0;fontColor=#232F3E;gradientColor=#4D72F3;gradientDirection=north;fillColor=#3334B9;strokeColor=#ffffff;dashed=0;verticalLabelPosition=bottom;verticalAlign=top;align=center;html=1;fontSize=12;fontStyle=0;aspect=fixed;shape=mxgraph.aws4.resourceIcon;resIcon=mxgraph.aws4.dynamodb;labelBackgroundColor=#ffffff;spacingTop=5;" parent="iQAo6v7Sjeovjz6BiHLI-1" vertex="1">
          <mxGeometry x="39.25000000000023" y="118" width="78" height="78" as="geometry" />
        </mxCell>
        <mxCell id="iQAo6v7Sjeovjz6BiHLI-7" value="&lt;div&gt;&lt;b&gt;Application Logs &amp;amp; Metrics&lt;/b&gt;&lt;br&gt;&lt;/div&gt;&lt;div&gt;(CloudWatch)&lt;/div&gt;" style="outlineConnect=0;fontColor=#232F3E;gradientColor=#F34482;gradientDirection=north;fillColor=#BC1356;strokeColor=#ffffff;dashed=0;verticalLabelPosition=bottom;verticalAlign=top;align=center;html=1;fontSize=12;fontStyle=0;aspect=fixed;shape=mxgraph.aws4.resourceIcon;resIcon=mxgraph.aws4.cloudwatch;labelBackgroundColor=#ffffff;" parent="iQAo6v7Sjeovjz6BiHLI-1" vertex="1">
          <mxGeometry x="599.2500000000002" y="203.5" width="78" height="78" as="geometry" />
        </mxCell>
        <mxCell id="iQAo6v7Sjeovjz6BiHLI-8" style="edgeStyle=orthogonalEdgeStyle;rounded=0;orthogonalLoop=1;jettySize=auto;html=1;" parent="iQAo6v7Sjeovjz6BiHLI-1" target="iQAo6v7Sjeovjz6BiHLI-4" edge="1">
          <mxGeometry relative="1" as="geometry">
            <Array as="points">
              <mxPoint x="340" y="157.5" />
              <mxPoint x="340" y="80.5" />
            </Array>
            <mxPoint x="278.0000000000002" y="157" as="sourcePoint" />
          </mxGeometry>
        </mxCell>
        <mxCell id="iQAo6v7Sjeovjz6BiHLI-9" style="edgeStyle=orthogonalEdgeStyle;rounded=0;orthogonalLoop=1;jettySize=auto;html=1;" parent="iQAo6v7Sjeovjz6BiHLI-1" target="iQAo6v7Sjeovjz6BiHLI-12" edge="1">
          <mxGeometry relative="1" as="geometry">
            <Array as="points">
              <mxPoint x="340" y="157.5" />
              <mxPoint x="340" y="242.5" />
            </Array>
            <mxPoint x="278.0000000000002" y="157" as="sourcePoint" />
          </mxGeometry>
        </mxCell>
        <mxCell id="iQAo6v7Sjeovjz6BiHLI-11" value="&lt;b&gt;Consent History &lt;/b&gt;&lt;b&gt;DB&lt;/b&gt;&lt;br&gt;&lt;div&gt;(DynamoDB)&lt;/div&gt;" style="outlineConnect=0;fontColor=#232F3E;gradientColor=#4D72F3;gradientDirection=north;fillColor=#3334B9;strokeColor=#ffffff;dashed=0;verticalLabelPosition=bottom;verticalAlign=top;align=center;html=1;fontSize=12;fontStyle=0;aspect=fixed;shape=mxgraph.aws4.resourceIcon;resIcon=mxgraph.aws4.dynamodb;labelBackgroundColor=#ffffff;spacingTop=5;" parent="iQAo6v7Sjeovjz6BiHLI-1" vertex="1">
          <mxGeometry x="599.2500000000002" y="40" width="78" height="78" as="geometry" />
        </mxCell>
        <mxCell id="iQAo6v7Sjeovjz6BiHLI-12" value="&lt;div&gt;&lt;b&gt;Consent History Dead Letter Queue&lt;br&gt;&lt;/b&gt;&lt;/div&gt;&lt;div&gt;(SQS)&lt;b&gt;&lt;br&gt;&lt;/b&gt;&lt;/div&gt;" style="outlineConnect=0;dashed=0;verticalLabelPosition=bottom;verticalAlign=top;align=center;html=1;shape=mxgraph.aws3.sqs;fillColor=#D9A741;gradientColor=none;" parent="iQAo6v7Sjeovjz6BiHLI-1" vertex="1">
          <mxGeometry x="400.75" y="196" width="76.5" height="93" as="geometry" />
        </mxCell>
        <mxCell id="iQAo6v7Sjeovjz6BiHLI-13" value="&lt;div&gt;&lt;b&gt;Consent Write Events&lt;/b&gt;&lt;/div&gt;&lt;div&gt;(Kinesis Data Stream)&lt;br&gt;&lt;/div&gt;" style="sketch=0;points=[[0,0,0],[0.25,0,0],[0.5,0,0],[0.75,0,0],[1,0,0],[0,1,0],[0.25,1,0],[0.5,1,0],[0.75,1,0],[1,1,0],[0,0.25,0],[0,0.5,0],[0,0.75,0],[1,0.25,0],[1,0.5,0],[1,0.75,0]];outlineConnect=0;fontColor=#232F3E;fillColor=#8C4FFF;strokeColor=#ffffff;dashed=0;verticalLabelPosition=bottom;verticalAlign=top;align=center;html=1;fontSize=12;fontStyle=0;aspect=fixed;shape=mxgraph.aws4.resourceIcon;resIcon=mxgraph.aws4.kinesis_data_streams;" parent="iQAo6v7Sjeovjz6BiHLI-1" vertex="1">
          <mxGeometry x="200" y="118" width="78" height="78" as="geometry" />
        </mxCell>
      </root>
    </mxGraphModel>
  </diagram>
  <diagram id="STIh2894ZWH2USICKIxl" name="Consent API pushing to Consent History Lambda">
    <mxGraphModel dx="1050" dy="511" grid="1" gridSize="10" guides="1" tooltips="1" connect="1" arrows="1" fold="1" page="1" pageScale="1" pageWidth="850" pageHeight="1100" math="0" shadow="0">
      <root>
        <mxCell id="0" />
        <mxCell id="1" parent="0" />
        <mxCell id="_4k49aAa9GQFHm0VswzK-1" value="AWS Cloud" style="points=[[0,0],[0.25,0],[0.5,0],[0.75,0],[1,0],[1,0.25],[1,0.5],[1,0.75],[1,1],[0.75,1],[0.5,1],[0.25,1],[0,1],[0,0.75],[0,0.5],[0,0.25]];outlineConnect=0;gradientColor=none;html=1;whiteSpace=wrap;fontSize=12;fontStyle=0;container=1;pointerEvents=0;collapsible=0;recursiveResize=0;shape=mxgraph.aws4.group;grIcon=mxgraph.aws4.group_aws_cloud_alt;strokeColor=#232F3E;fillColor=none;verticalAlign=top;align=left;spacingLeft=30;fontColor=#232F3E;dashed=0;" parent="1" vertex="1">
          <mxGeometry x="40" y="40" width="580" height="470" as="geometry" />
        </mxCell>
        <mxCell id="_4k49aAa9GQFHm0VswzK-3" style="edgeStyle=orthogonalEdgeStyle;rounded=0;orthogonalLoop=1;jettySize=auto;html=1;" parent="_4k49aAa9GQFHm0VswzK-1" source="_4k49aAa9GQFHm0VswzK-4" target="_4k49aAa9GQFHm0VswzK-11" edge="1">
          <mxGeometry relative="1" as="geometry">
            <Array as="points">
              <mxPoint x="360" y="235" />
              <mxPoint x="360" y="79" />
            </Array>
          </mxGeometry>
        </mxCell>
        <mxCell id="_4k49aAa9GQFHm0VswzK-16" style="edgeStyle=orthogonalEdgeStyle;rounded=0;orthogonalLoop=1;jettySize=auto;html=1;" parent="_4k49aAa9GQFHm0VswzK-1" source="_4k49aAa9GQFHm0VswzK-4" target="_4k49aAa9GQFHm0VswzK-12" edge="1">
          <mxGeometry relative="1" as="geometry" />
        </mxCell>
        <mxCell id="_4k49aAa9GQFHm0VswzK-17" style="edgeStyle=orthogonalEdgeStyle;rounded=0;orthogonalLoop=1;jettySize=auto;html=1;" parent="_4k49aAa9GQFHm0VswzK-1" source="_4k49aAa9GQFHm0VswzK-4" target="_4k49aAa9GQFHm0VswzK-7" edge="1">
          <mxGeometry relative="1" as="geometry">
            <Array as="points">
              <mxPoint x="360" y="235" />
              <mxPoint x="360" y="379" />
            </Array>
          </mxGeometry>
        </mxCell>
        <mxCell id="_4k49aAa9GQFHm0VswzK-4" value="&lt;b&gt;Consent History Ingester&lt;/b&gt;&lt;br&gt;&lt;div&gt;(Lambda)&lt;/div&gt;" style="outlineConnect=0;fontColor=#232F3E;gradientColor=#F78E04;gradientDirection=north;fillColor=#D05C17;strokeColor=#ffffff;dashed=0;verticalLabelPosition=bottom;verticalAlign=top;align=center;html=1;fontSize=12;fontStyle=0;aspect=fixed;shape=mxgraph.aws4.resourceIcon;resIcon=mxgraph.aws4.lambda;labelBackgroundColor=#ffffff;spacingTop=3;" parent="_4k49aAa9GQFHm0VswzK-1" vertex="1">
          <mxGeometry x="230" y="196" width="78" height="78" as="geometry" />
        </mxCell>
        <mxCell id="_4k49aAa9GQFHm0VswzK-6" value="&lt;div&gt;&lt;b&gt;Consent DB&lt;/b&gt;&lt;br&gt;&lt;/div&gt;&lt;div&gt;(DynamoDB)&lt;/div&gt;" style="outlineConnect=0;fontColor=#232F3E;gradientColor=#4D72F3;gradientDirection=north;fillColor=#3334B9;strokeColor=#ffffff;dashed=0;verticalLabelPosition=bottom;verticalAlign=top;align=center;html=1;fontSize=12;fontStyle=0;aspect=fixed;shape=mxgraph.aws4.resourceIcon;resIcon=mxgraph.aws4.dynamodb;labelBackgroundColor=#ffffff;spacingTop=5;" parent="_4k49aAa9GQFHm0VswzK-1" vertex="1">
          <mxGeometry x="230.00000000000023" y="40" width="78" height="78" as="geometry" />
        </mxCell>
        <mxCell id="_4k49aAa9GQFHm0VswzK-14" style="edgeStyle=orthogonalEdgeStyle;rounded=0;orthogonalLoop=1;jettySize=auto;html=1;" parent="_4k49aAa9GQFHm0VswzK-1" source="_4k49aAa9GQFHm0VswzK-13" target="_4k49aAa9GQFHm0VswzK-6" edge="1">
          <mxGeometry relative="1" as="geometry" />
        </mxCell>
        <mxCell id="_4k49aAa9GQFHm0VswzK-15" style="edgeStyle=orthogonalEdgeStyle;rounded=0;orthogonalLoop=1;jettySize=auto;html=1;" parent="_4k49aAa9GQFHm0VswzK-1" source="_4k49aAa9GQFHm0VswzK-13" target="_4k49aAa9GQFHm0VswzK-4" edge="1">
          <mxGeometry relative="1" as="geometry" />
        </mxCell>
        <mxCell id="_4k49aAa9GQFHm0VswzK-13" value="&lt;b&gt;Consent Management API &lt;/b&gt;&lt;b&gt;Worker&lt;/b&gt;&lt;br&gt;&lt;div&gt;(Lambda)&lt;/div&gt;" style="outlineConnect=0;fontColor=#232F3E;gradientColor=#F78E04;gradientDirection=north;fillColor=#D05C17;strokeColor=#ffffff;dashed=0;verticalLabelPosition=bottom;verticalAlign=top;align=center;html=1;fontSize=12;fontStyle=0;aspect=fixed;shape=mxgraph.aws4.resourceIcon;resIcon=mxgraph.aws4.lambda;labelBackgroundColor=none;spacingTop=3;" parent="_4k49aAa9GQFHm0VswzK-1" vertex="1">
          <mxGeometry x="70" y="118" width="78" height="78" as="geometry" />
        </mxCell>
        <mxCell id="_4k49aAa9GQFHm0VswzK-11" value="&lt;b&gt;Consent History &lt;/b&gt;&lt;b&gt;DB&lt;/b&gt;&lt;br&gt;&lt;div&gt;(DynamoDB)&lt;/div&gt;" style="outlineConnect=0;fontColor=#232F3E;gradientColor=#4D72F3;gradientDirection=north;fillColor=#3334B9;strokeColor=#ffffff;dashed=0;verticalLabelPosition=bottom;verticalAlign=top;align=center;html=1;fontSize=12;fontStyle=0;aspect=fixed;shape=mxgraph.aws4.resourceIcon;resIcon=mxgraph.aws4.dynamodb;labelBackgroundColor=#ffffff;spacingTop=5;" parent="_4k49aAa9GQFHm0VswzK-1" vertex="1">
          <mxGeometry x="430.0000000000002" y="40" width="78" height="78" as="geometry" />
        </mxCell>
        <mxCell id="_4k49aAa9GQFHm0VswzK-12" value="&lt;b&gt;Consent History &lt;/b&gt;&lt;b&gt;Dead Letter Queue&lt;br&gt;&lt;/b&gt;&lt;div&gt;(SQS)&lt;b&gt;&lt;br&gt;&lt;/b&gt;&lt;/div&gt;" style="outlineConnect=0;dashed=0;verticalLabelPosition=bottom;verticalAlign=top;align=center;html=1;shape=mxgraph.aws3.sqs;fillColor=#D9A741;gradientColor=none;" parent="_4k49aAa9GQFHm0VswzK-1" vertex="1">
          <mxGeometry x="430.75" y="188.5" width="76.5" height="93" as="geometry" />
        </mxCell>
        <mxCell id="_4k49aAa9GQFHm0VswzK-7" value="&lt;div&gt;&lt;b&gt;Application Logs &amp;amp; Metrics&lt;/b&gt;&lt;br&gt;&lt;/div&gt;&lt;div&gt;(CloudWatch)&lt;/div&gt;" style="outlineConnect=0;fontColor=#232F3E;gradientColor=#F34482;gradientDirection=north;fillColor=#BC1356;strokeColor=#ffffff;dashed=0;verticalLabelPosition=bottom;verticalAlign=top;align=center;html=1;fontSize=12;fontStyle=0;aspect=fixed;shape=mxgraph.aws4.resourceIcon;resIcon=mxgraph.aws4.cloudwatch;labelBackgroundColor=#ffffff;" parent="_4k49aAa9GQFHm0VswzK-1" vertex="1">
          <mxGeometry x="430.0000000000002" y="340" width="78" height="78" as="geometry" />
        </mxCell>
      </root>
    </mxGraphModel>
  </diagram>
  <diagram id="aw5Ax3et4fmG9gD_uB_o" name="Consent API pushing to Consent History queue">
    <mxGraphModel dx="1050" dy="511" grid="1" gridSize="10" guides="1" tooltips="1" connect="1" arrows="1" fold="1" page="1" pageScale="1" pageWidth="850" pageHeight="1100" math="0" shadow="0">
      <root>
        <mxCell id="0" />
        <mxCell id="1" parent="0" />
        <mxCell id="pkXrTUbYJYayfPbyIxpu-1" value="AWS Cloud" style="points=[[0,0],[0.25,0],[0.5,0],[0.75,0],[1,0],[1,0.25],[1,0.5],[1,0.75],[1,1],[0.75,1],[0.5,1],[0.25,1],[0,1],[0,0.75],[0,0.5],[0,0.25]];outlineConnect=0;gradientColor=none;html=1;whiteSpace=wrap;fontSize=12;fontStyle=0;container=1;pointerEvents=0;collapsible=0;recursiveResize=0;shape=mxgraph.aws4.group;grIcon=mxgraph.aws4.group_aws_cloud_alt;strokeColor=#232F3E;fillColor=none;verticalAlign=top;align=left;spacingLeft=30;fontColor=#232F3E;dashed=0;" parent="1" vertex="1">
          <mxGeometry x="40" y="40" width="690" height="410" as="geometry" />
        </mxCell>
        <mxCell id="pkXrTUbYJYayfPbyIxpu-6" value="&lt;div&gt;&lt;b&gt;Consent DB&lt;/b&gt;&lt;br&gt;&lt;/div&gt;&lt;div&gt;(DynamoDB)&lt;/div&gt;" style="outlineConnect=0;fontColor=#232F3E;gradientColor=#4D72F3;gradientDirection=north;fillColor=#3334B9;strokeColor=#ffffff;dashed=0;verticalLabelPosition=bottom;verticalAlign=top;align=center;html=1;fontSize=12;fontStyle=0;aspect=fixed;shape=mxgraph.aws4.resourceIcon;resIcon=mxgraph.aws4.dynamodb;labelBackgroundColor=#ffffff;spacingTop=5;" parent="pkXrTUbYJYayfPbyIxpu-1" vertex="1">
          <mxGeometry x="240.00000000000023" y="40" width="78" height="78" as="geometry" />
        </mxCell>
        <mxCell id="pkXrTUbYJYayfPbyIxpu-7" style="edgeStyle=orthogonalEdgeStyle;rounded=0;orthogonalLoop=1;jettySize=auto;html=1;" parent="pkXrTUbYJYayfPbyIxpu-1" source="pkXrTUbYJYayfPbyIxpu-9" target="pkXrTUbYJYayfPbyIxpu-6" edge="1">
          <mxGeometry relative="1" as="geometry">
            <Array as="points">
              <mxPoint x="190" y="157" />
              <mxPoint x="190" y="79" />
            </Array>
          </mxGeometry>
        </mxCell>
        <mxCell id="pkXrTUbYJYayfPbyIxpu-9" value="&lt;b&gt;Consent Management API &lt;/b&gt;&lt;b&gt;Worker&lt;/b&gt;&lt;br&gt;&lt;div&gt;(Lambda)&lt;/div&gt;" style="outlineConnect=0;fontColor=#232F3E;gradientColor=#F78E04;gradientDirection=north;fillColor=#D05C17;strokeColor=#ffffff;dashed=0;verticalLabelPosition=bottom;verticalAlign=top;align=center;html=1;fontSize=12;fontStyle=0;aspect=fixed;shape=mxgraph.aws4.resourceIcon;resIcon=mxgraph.aws4.lambda;labelBackgroundColor=none;spacingTop=3;" parent="pkXrTUbYJYayfPbyIxpu-1" vertex="1">
          <mxGeometry x="70" y="118" width="78" height="78" as="geometry" />
        </mxCell>
        <mxCell id="pkXrTUbYJYayfPbyIxpu-13" style="edgeStyle=orthogonalEdgeStyle;rounded=0;orthogonalLoop=1;jettySize=auto;html=1;" parent="pkXrTUbYJYayfPbyIxpu-1" source="pkXrTUbYJYayfPbyIxpu-11" target="pkXrTUbYJYayfPbyIxpu-5" edge="1">
          <mxGeometry relative="1" as="geometry" />
        </mxCell>
        <mxCell id="pkXrTUbYJYayfPbyIxpu-11" value="&lt;b&gt;Consent History &lt;/b&gt;&lt;b&gt;Queue&lt;br&gt;&lt;/b&gt;&lt;div&gt;(SQS)&lt;b&gt;&lt;br&gt;&lt;/b&gt;&lt;/div&gt;" style="outlineConnect=0;dashed=0;verticalLabelPosition=bottom;verticalAlign=top;align=center;html=1;shape=mxgraph.aws3.sqs;fillColor=#D9A741;gradientColor=none;" parent="pkXrTUbYJYayfPbyIxpu-1" vertex="1">
          <mxGeometry x="240.75" y="188.5" width="76.5" height="93" as="geometry" />
        </mxCell>
        <mxCell id="pkXrTUbYJYayfPbyIxpu-8" style="edgeStyle=orthogonalEdgeStyle;rounded=0;orthogonalLoop=1;jettySize=auto;html=1;" parent="pkXrTUbYJYayfPbyIxpu-1" source="pkXrTUbYJYayfPbyIxpu-9" target="pkXrTUbYJYayfPbyIxpu-11" edge="1">
          <mxGeometry relative="1" as="geometry">
            <Array as="points">
              <mxPoint x="190" y="157" />
              <mxPoint x="190" y="235" />
            </Array>
          </mxGeometry>
        </mxCell>
        <mxCell id="pkXrTUbYJYayfPbyIxpu-5" value="&lt;b&gt;Consent History Ingester&lt;/b&gt;&lt;br&gt;&lt;div&gt;(Lambda)&lt;/div&gt;" style="outlineConnect=0;fontColor=#232F3E;gradientColor=#F78E04;gradientDirection=north;fillColor=#D05C17;strokeColor=#ffffff;dashed=0;verticalLabelPosition=bottom;verticalAlign=top;align=center;html=1;fontSize=12;fontStyle=0;aspect=fixed;shape=mxgraph.aws4.resourceIcon;resIcon=mxgraph.aws4.lambda;labelBackgroundColor=#ffffff;spacingTop=3;" parent="pkXrTUbYJYayfPbyIxpu-1" vertex="1">
          <mxGeometry x="380" y="196" width="78" height="78" as="geometry" />
        </mxCell>
        <mxCell id="pkXrTUbYJYayfPbyIxpu-12" value="&lt;div&gt;&lt;b&gt;Application Logs &amp;amp; Metrics&lt;/b&gt;&lt;br&gt;&lt;/div&gt;&lt;div&gt;(CloudWatch)&lt;/div&gt;" style="outlineConnect=0;fontColor=#232F3E;gradientColor=#F34482;gradientDirection=north;fillColor=#BC1356;strokeColor=#ffffff;dashed=0;verticalLabelPosition=bottom;verticalAlign=top;align=center;html=1;fontSize=12;fontStyle=0;aspect=fixed;shape=mxgraph.aws4.resourceIcon;resIcon=mxgraph.aws4.cloudwatch;labelBackgroundColor=#ffffff;" parent="pkXrTUbYJYayfPbyIxpu-1" vertex="1">
          <mxGeometry x="560.0000000000002" y="274" width="78" height="78" as="geometry" />
        </mxCell>
        <mxCell id="pkXrTUbYJYayfPbyIxpu-4" style="edgeStyle=orthogonalEdgeStyle;rounded=0;orthogonalLoop=1;jettySize=auto;html=1;" parent="pkXrTUbYJYayfPbyIxpu-1" source="pkXrTUbYJYayfPbyIxpu-5" target="pkXrTUbYJYayfPbyIxpu-12" edge="1">
          <mxGeometry relative="1" as="geometry">
            <Array as="points">
              <mxPoint x="510" y="235" />
              <mxPoint x="510" y="320" />
            </Array>
          </mxGeometry>
        </mxCell>
        <mxCell id="pkXrTUbYJYayfPbyIxpu-10" value="&lt;b&gt;Consent History &lt;/b&gt;&lt;b&gt;DB&lt;/b&gt;&lt;br&gt;&lt;div&gt;(DynamoDB)&lt;/div&gt;" style="outlineConnect=0;fontColor=#232F3E;gradientColor=#4D72F3;gradientDirection=north;fillColor=#3334B9;strokeColor=#ffffff;dashed=0;verticalLabelPosition=bottom;verticalAlign=top;align=center;html=1;fontSize=12;fontStyle=0;aspect=fixed;shape=mxgraph.aws4.resourceIcon;resIcon=mxgraph.aws4.dynamodb;labelBackgroundColor=#ffffff;spacingTop=5;" parent="pkXrTUbYJYayfPbyIxpu-1" vertex="1">
          <mxGeometry x="560.0000000000002" y="118" width="78" height="78" as="geometry" />
        </mxCell>
        <mxCell id="pkXrTUbYJYayfPbyIxpu-2" style="edgeStyle=orthogonalEdgeStyle;rounded=0;orthogonalLoop=1;jettySize=auto;html=1;" parent="pkXrTUbYJYayfPbyIxpu-1" source="pkXrTUbYJYayfPbyIxpu-5" target="pkXrTUbYJYayfPbyIxpu-10" edge="1">
          <mxGeometry relative="1" as="geometry">
            <Array as="points">
              <mxPoint x="510" y="235" />
              <mxPoint x="510" y="160" />
            </Array>
          </mxGeometry>
        </mxCell>
      </root>
    </mxGraphModel>
  </diagram>
  <diagram id="7U712aQ8Ea8jfO-T_gNR" name="Consent API writing to Consent History DB">
    <mxGraphModel dx="1050" dy="511" grid="1" gridSize="10" guides="1" tooltips="1" connect="1" arrows="1" fold="1" page="1" pageScale="1" pageWidth="850" pageHeight="1100" math="0" shadow="0">
      <root>
        <mxCell id="0" />
        <mxCell id="1" parent="0" />
        <mxCell id="bTtNWeI41zkxKcYpNn4g-1" value="AWS Cloud" style="points=[[0,0],[0.25,0],[0.5,0],[0.75,0],[1,0],[1,0.25],[1,0.5],[1,0.75],[1,1],[0.75,1],[0.5,1],[0.25,1],[0,1],[0,0.75],[0,0.5],[0,0.25]];outlineConnect=0;gradientColor=none;html=1;whiteSpace=wrap;fontSize=12;fontStyle=0;container=1;pointerEvents=0;collapsible=0;recursiveResize=0;shape=mxgraph.aws4.group;grIcon=mxgraph.aws4.group_aws_cloud_alt;strokeColor=#232F3E;fillColor=none;verticalAlign=top;align=left;spacingLeft=30;fontColor=#232F3E;dashed=0;" parent="1" vertex="1">
          <mxGeometry x="40" y="40" width="360" height="330" as="geometry" />
        </mxCell>
        <mxCell id="bTtNWeI41zkxKcYpNn4g-2" value="&lt;div&gt;&lt;b&gt;Consent DB&lt;/b&gt;&lt;br&gt;&lt;/div&gt;&lt;div&gt;(DynamoDB)&lt;/div&gt;" style="outlineConnect=0;fontColor=#232F3E;gradientColor=#4D72F3;gradientDirection=north;fillColor=#3334B9;strokeColor=#ffffff;dashed=0;verticalLabelPosition=bottom;verticalAlign=top;align=center;html=1;fontSize=12;fontStyle=0;aspect=fixed;shape=mxgraph.aws4.resourceIcon;resIcon=mxgraph.aws4.dynamodb;labelBackgroundColor=#ffffff;spacingTop=5;" parent="bTtNWeI41zkxKcYpNn4g-1" vertex="1">
          <mxGeometry x="240.00000000000023" y="40" width="78" height="78" as="geometry" />
        </mxCell>
        <mxCell id="bTtNWeI41zkxKcYpNn4g-3" style="edgeStyle=orthogonalEdgeStyle;rounded=0;orthogonalLoop=1;jettySize=auto;html=1;" parent="bTtNWeI41zkxKcYpNn4g-1" source="bTtNWeI41zkxKcYpNn4g-4" target="bTtNWeI41zkxKcYpNn4g-2" edge="1">
          <mxGeometry relative="1" as="geometry">
            <Array as="points">
              <mxPoint x="190" y="157" />
              <mxPoint x="190" y="79" />
            </Array>
          </mxGeometry>
        </mxCell>
        <mxCell id="bTtNWeI41zkxKcYpNn4g-4" value="&lt;b&gt;Consent Management API &lt;/b&gt;&lt;b&gt;Worker&lt;/b&gt;&lt;br&gt;&lt;div&gt;(Lambda)&lt;/div&gt;" style="outlineConnect=0;fontColor=#232F3E;gradientColor=#F78E04;gradientDirection=north;fillColor=#D05C17;strokeColor=#ffffff;dashed=0;verticalLabelPosition=bottom;verticalAlign=top;align=center;html=1;fontSize=12;fontStyle=0;aspect=fixed;shape=mxgraph.aws4.resourceIcon;resIcon=mxgraph.aws4.lambda;labelBackgroundColor=none;spacingTop=3;" parent="bTtNWeI41zkxKcYpNn4g-1" vertex="1">
          <mxGeometry x="70" y="118" width="78" height="78" as="geometry" />
        </mxCell>
        <mxCell id="bTtNWeI41zkxKcYpNn4g-7" style="edgeStyle=orthogonalEdgeStyle;rounded=0;orthogonalLoop=1;jettySize=auto;html=1;" parent="bTtNWeI41zkxKcYpNn4g-1" source="bTtNWeI41zkxKcYpNn4g-4" edge="1">
          <mxGeometry relative="1" as="geometry">
            <Array as="points">
              <mxPoint x="190" y="157" />
              <mxPoint x="190" y="235" />
            </Array>
            <mxPoint x="240.75" y="235" as="targetPoint" />
          </mxGeometry>
        </mxCell>
        <mxCell id="bTtNWeI41zkxKcYpNn4g-11" value="&lt;b&gt;Consent History &lt;/b&gt;&lt;b&gt;DB&lt;/b&gt;&lt;br&gt;&lt;div&gt;(DynamoDB)&lt;/div&gt;" style="outlineConnect=0;fontColor=#232F3E;gradientColor=#4D72F3;gradientDirection=north;fillColor=#3334B9;strokeColor=#ffffff;dashed=0;verticalLabelPosition=bottom;verticalAlign=top;align=center;html=1;fontSize=12;fontStyle=0;aspect=fixed;shape=mxgraph.aws4.resourceIcon;resIcon=mxgraph.aws4.dynamodb;labelBackgroundColor=#ffffff;spacingTop=5;" parent="bTtNWeI41zkxKcYpNn4g-1" vertex="1">
          <mxGeometry x="240.00000000000023" y="196" width="78" height="78" as="geometry" />
        </mxCell>
      </root>
    </mxGraphModel>
  </diagram>
</mxfile>
